<?xml version="1.0" encoding="UTF-8"?>
<svg version="1.1" xmlns="http://www.w3.org/2000/svg" width="500" height="500">
<path d="M0 0 C3.49817305 1.16605768 3.53384403 1.57024237 5.25 4.625 C8.86119229 10.31012641 13.5435762 14.7607159 18.35449219 19.41845703 C21.49970075 22.47029983 24.52420667 25.54378924 27.37890625 28.87109375 C31.50500275 33.66503135 35.99440059 38.06557909 40.5 42.5 C49.60136534 51.4575839 49.60136534 51.4575839 53.1875 55.6875 C58.88780956 62.3279303 65.28392947 68.3487606 71.5 74.5 C74.07593219 77.04906624 76.64834314 79.60161354 79.21875 82.15625 C79.79500122 82.72420288 80.37125244 83.29215576 80.96496582 83.87731934 C83.83181731 86.72718392 86.57120552 89.62706202 89.19921875 92.69921875 C93.54530762 97.72281535 98.25876532 102.37111314 102.97114563 107.04631042 C104.63113059 108.69333883 106.28780235 110.34363952 107.94372559 111.99475098 C111.45965651 115.49934639 114.97951953 118.99997555 118.5 122.5 C122.58492585 126.56119008 126.66814893 130.62406294 130.74714661 134.69120789 C132.36626771 136.30392583 133.98840784 137.91356218 135.61071777 139.52307129 C143.77314264 147.64538049 143.77314264 147.64538049 147.4387207 151.9387207 C151.93757268 157.19498401 156.89720229 162.00781681 161.80362511 166.8787899 C163.60978877 168.67203434 165.41267339 170.46852041 167.21479797 172.26582336 C171.03620872 176.07588917 174.86156166 179.8819814 178.6875 183.6875 C183.13519262 188.1115258 187.58121842 192.53720084 192.02305031 196.96711159 C193.79356724 198.7311789 195.56708275 200.49219253 197.34074402 202.25309753 C198.43002913 203.33874888 199.51917339 204.42454157 200.6081543 205.51049805 C201.0970665 205.99424393 201.5859787 206.47798981 202.08970642 206.97639465 C204.27397471 209.16032685 206.28748067 211.36137906 208.21199036 213.78059387 C209.80894494 216.07778494 209.80894494 216.07778494 212 217 C212 216.34 212 215.68 212 215 C213.44443417 213.57445431 213.44443417 213.57445431 215.45677185 211.91014099 C220.09426397 207.96322296 224.39297659 203.74780133 228.69165039 199.43774414 C229.52038162 198.61076523 230.34911285 197.78378632 231.20295715 196.93174744 C233.92036419 194.21871347 236.63412994 191.50207123 239.34765625 188.78515625 C241.24744838 186.88603847 243.14738776 184.98706892 245.04747009 183.08824158 C249.02083108 179.11669338 252.99209403 175.14305648 256.9621582 171.16821289 C261.53413667 166.59079353 266.10970609 162.0169874 270.68715674 157.44504076 C274.63659322 153.50016088 278.58405441 149.55331235 282.52990907 145.60484976 C284.87809849 143.25511153 287.22713288 140.90623087 289.57756233 138.55873299 C292.20005753 135.93879162 294.81930158 133.31564127 297.43774414 130.69165039 C298.58738647 129.5450444 298.58738647 129.5450444 299.76025391 128.37527466 C303.79907656 124.32067106 307.65085781 120.17069755 311.38779736 115.83693218 C313.72973515 113.16854498 316.21269752 110.66238711 318.73583984 108.16650391 C319.26194855 107.64185547 319.78805725 107.11720703 320.33010864 106.57666016 C321.4556536 105.45487812 322.5823504 104.33425073 323.71012497 103.21471024 C325.49445562 101.44328684 327.27551718 99.66863215 329.05581665 97.89315796 C332.82605318 94.13426348 336.60024626 90.37935745 340.375 86.625 C344.77243875 82.251178 349.16823248 77.87572811 353.55986404 73.49607468 C355.31557954 71.74684526 357.0742743 70.00064908 358.83309937 68.25454712 C359.90238857 67.18888807 360.97153896 66.12308971 362.04052734 65.05712891 C362.9764975 64.12639557 363.91246765 63.19566223 364.87680054 62.23672485 C367.02670839 60.1894389 367.02670839 60.1894389 368 58 C368.66 58 369.32 58 370 58 C370.23178955 57.44151367 370.4635791 56.88302734 370.70239258 56.30761719 C372.34019671 53.39500672 374.37538715 51.41809206 376.76171875 49.078125 C377.23060013 48.61444519 377.69948151 48.15076538 378.18257141 47.67303467 C379.67951598 46.19382975 381.18295749 44.72147299 382.6875 43.25 C388.49936809 37.54728834 394.26558784 31.86413757 399.55786133 25.66699219 C401.43356349 23.49883671 403.4430061 21.4955911 405.5 19.5 C408.38937842 16.64999982 411.15485094 13.75489367 413.8125 10.6875 C414.65361328 9.71876953 414.65361328 9.71876953 415.51171875 8.73046875 C416.7209647 7.32444262 417.92393339 5.91301955 419.125 4.5 C421 3 421 3 423.75 2.75 C424.4925 2.8325 425.235 2.915 426 3 C427.10052361 6.30157083 427.12934329 8.7540709 427.1328125 12.23046875 C427.13619629 14.13082886 427.13619629 14.13082886 427.13964844 16.06958008 C427.13561591 17.44222281 427.13071437 18.81486324 427.125 20.1875 C427.12278442 20.87862885 427.12056885 21.56975769 427.11828613 22.28182983 C427.09984901 27.18816082 427.05585562 32.09396536 427 37 C426.98743164 38.20430664 426.97486328 39.40861328 426.96191406 40.64941406 C426.91642615 43.87162908 426.84043328 47.09126668 426.75 50.3125 C426.73598145 51.25182373 426.72196289 52.19114746 426.70751953 53.15893555 C425.8567998 76.60028495 401.93113961 94.21723885 386.49446869 109.58069611 C383.74202117 112.3202213 380.99284891 115.06299723 378.2444458 117.80657959 C372.41596405 123.62406441 366.5832103 129.43725711 360.75 135.25 C353.97048564 142.00576764 347.1927112 148.76326336 340.41910553 155.52495575 C337.72080949 158.21680738 335.01950268 160.90561195 332.3180542 163.59429932 C330.65557235 165.25314691 328.99323171 166.91213604 327.33105469 168.57128906 C326.21653427 169.67806 326.21653427 169.67806 325.07949829 170.80718994 C321.73499798 174.15135368 318.50608911 177.52682547 315.43533325 181.12516785 C312.14245009 184.94141182 308.5540246 188.18500627 304.70361328 191.42602539 C303.27029837 192.65629463 301.83864656 193.88850339 300.40843201 195.12237549 C299.66070463 195.76736244 298.91297726 196.4123494 298.14259148 197.07688141 C256.66661963 230.15013759 256.66661963 230.15013759 235.97437286 276.24641228 C235.23723953 288.49432425 236.98930826 300.75040598 239.10791016 312.78540039 C241.79735049 329.07097159 237.54760715 350.46626687 228 364 C225.26499673 367.32213712 222.37447191 369.18662452 218.125 370 C211.02073107 370.40365164 206.40464917 367.59957938 201.25 363.0625 C200.46232239 362.28590027 199.67464478 361.50930054 198.86309814 360.70916748 C196.04832567 357.95290756 196.04832567 357.95290756 192.90350342 355.62164307 C187.94234199 351.65472178 183.99779511 347.89406326 182.94787598 341.41467285 C182.46291667 335.91395587 182.64751288 330.43338207 182.828125 324.921875 C182.85054617 322.89883491 182.86760897 320.87572903 182.87957764 318.8526001 C182.92508983 313.5638183 183.04267662 308.27908115 183.17602539 302.99188232 C183.29946155 297.58238432 183.35373133 292.17222337 183.4140625 286.76171875 C183.54221442 276.17271564 183.74662713 265.58669593 184 255 C183.07741142 254.56489609 183.07741142 254.56489609 182.13618469 254.1210022 C179.42598213 252.69877357 177.63829032 250.88023804 175.48046875 248.7109375 C174.62259766 247.85113281 173.76472656 246.99132812 172.88085938 246.10546875 C171.99205078 245.20441406 171.10324219 244.30335938 170.1875 243.375 C168.87168945 242.05822266 168.87168945 242.05822266 167.52929688 240.71484375 C160.68295163 233.82241241 160.68295163 233.82241241 158.75589371 231.50184345 C153.0193565 224.61591791 146.43151301 218.58477293 139.94024658 212.42666245 C135.9911997 208.67899881 132.05437879 204.91853408 128.11732483 201.15827942 C127.27967752 200.35852271 126.4420302 199.558766 125.57899964 198.73477423 C113.85168698 187.52532345 102.23839442 176.19792152 90.62315464 164.87257099 C81.18048044 155.67220553 71.70009369 146.51794383 62.12036133 137.46020508 C53.73502319 129.53147203 45.43502385 121.52356862 37.22251457 113.4158265 C32.88519033 109.13942266 28.51894951 104.91008155 24.04699898 100.77428627 C-6.18190546 72.73526341 -6.18190546 72.73526341 -7.34834844 52.1383509 C-7.54792785 42.83233417 -6.68258292 33.67150058 -5.34088254 24.47411704 C-5.00165865 22.01203844 -4.73822261 19.55342806 -4.50056267 17.0796299 C-4.42334557 16.30407291 -4.34612847 15.52851592 -4.26657146 14.7294572 C-4.12443275 13.28927635 -3.98852863 11.84845936 -3.86038977 10.40696543 C-3.41184535 6.25058785 -2.4118624 3.41579648 0 0 Z " fill="#FB3130" transform="translate(32,61)"/>
<path d="M0 0 C2.125 0.375 2.125 0.375 4 1 C4.11755481 4.64555558 4.18769812 8.29061474 4.25 11.9375 C4.28351563 12.95908203 4.31703125 13.98066406 4.3515625 15.03320312 C4.47737767 24.87824001 1.89181141 31.35345653 -4.5625 38.8125 C-7.72220253 42.47853918 -7.72220253 42.47853918 -10.65234375 46.32421875 C-11.09707031 46.87722656 -11.54179687 47.43023437 -12 48 C-12.66 48 -13.32 48 -14 48 C-14 48.66 -14 49.32 -14 50 C-15.62382122 51.7312624 -17.28479679 53.36175561 -19 55 C-20.3393943 56.32580834 -21.67625041 57.65418324 -23.0112915 58.984375 C-24.6119926 60.57294413 -26.21272292 62.16148382 -27.81347656 63.75 C-36.7385305 72.60966217 -45.65344102 81.47945356 -54.5624733 90.35522461 C-59.95195216 95.7240376 -65.34516225 101.08900315 -70.74707031 106.4453125 C-75.47097385 111.12936223 -80.18781593 115.8203892 -84.89629722 120.51994324 C-87.38558368 123.00401871 -89.87826158 125.48446038 -92.3794632 127.95654297 C-95.16526001 130.71015772 -97.93527609 133.47931544 -100.70410156 136.25 C-101.53421753 137.06573486 -102.3643335 137.88146973 -103.21960449 138.72192383 C-103.97102722 139.47884521 -104.72244995 140.2357666 -105.49664307 141.015625 C-106.48105566 141.99450684 -106.48105566 141.99450684 -107.48535538 142.99316406 C-110.87219379 147.48057249 -110.08352595 153.06456564 -110 158.4375 C-109.9010131 181.12621806 -114.23982967 191.03426223 -130 207 C-131.30324219 208.34384766 -131.30324219 208.34384766 -132.6328125 209.71484375 C-137.19807885 214.36759778 -141.88811658 218.94439861 -147 223 C-147.33 223 -147.66 223 -148 223 C-157.41897834 163.82101152 -157.41897834 163.82101152 -142.71484375 143.36816406 C-130.50499043 127.42516366 -114.49509625 114.26091587 -98.84350586 101.83032227 C-94.69546938 98.52694104 -91.06726488 95.10068498 -87.69288635 91.0042572 C-84.25694117 86.93634214 -80.37490593 83.27499571 -76.59375 79.53125 C-75.26845276 78.21163269 -75.26845276 78.21163269 -73.91638184 76.86535645 C-70.6402768 73.60343055 -67.3596502 70.34607436 -64.07867432 67.08905029 C-60.85169462 63.8851274 -57.6286192 60.67730884 -54.40625 57.46875 C-53.56751343 56.63831177 -52.72877686 55.80787354 -51.86462402 54.95227051 C-47.57855681 50.68395099 -43.47036899 46.33885014 -39.52722168 41.7520752 C-37.51166101 39.43976264 -35.37271298 37.27670886 -33.1875 35.125 C-32.33929688 34.28453125 -31.49109375 33.4440625 -30.6171875 32.578125 C-28.87239583 30.859375 -27.12760417 29.140625 -25.3828125 27.421875 C-20.36413247 22.44895801 -15.58707308 17.37160644 -11 12 C-9.40033671 10.20431141 -7.79689884 8.41196824 -6.1875 6.625 C-5.43855469 5.79226562 -4.68960938 4.95953125 -3.91796875 4.1015625 C-2.64342404 2.70501453 -1.33693875 1.33693875 0 0 Z " fill="#F83130" transform="translate(431,171)"/>
<path d="M0 0 C1.32 0 2.64 0 4 0 C5.45703125 1.72265625 5.45703125 1.72265625 6.8125 4.0625 C9.24055363 7.96690785 11.79740411 11.01597535 15.13208008 14.16040039 C16.90923764 15.91061373 18.51730808 17.71882657 20.12890625 19.62109375 C24.35192756 24.48710122 28.91016917 28.98267835 33.5 33.5 C35.13791964 35.11204413 36.77337266 36.72659861 38.40625 38.34375 C39.12103516 39.04693359 39.83582031 39.75011719 40.57226562 40.47460938 C42.47609909 42.45502504 44.25879653 44.45592072 46.040802 46.54179382 C50.40043341 51.53548341 55.07148757 56.1888945 59.77490234 60.85668945 C60.74005039 61.81827298 61.70495848 62.7800974 62.66964722 63.74214172 C64.73128752 65.79728019 66.79442856 67.85089537 68.85874557 69.90334511 C72.12247976 73.14866269 75.38175614 76.39843291 78.64028931 79.64897156 C87.90112023 88.88573824 97.16796063 98.11646241 106.43896484 107.34301758 C111.57143716 112.45096087 116.70032377 117.56247739 121.82537425 122.67786759 C125.06497367 125.91092387 128.30902773 129.13942184 131.55644679 132.36462271 C133.57000582 134.36647279 135.57939124 136.37247111 137.58760452 138.37968254 C138.96640911 139.75530829 140.35020816 141.12592228 141.73413086 142.49639893 C142.95789932 143.72212364 142.95789932 143.72212364 144.20639038 144.97261047 C144.91906256 145.68214025 145.63173473 146.39167002 146.36600304 147.12270069 C149.1850244 150.36147468 149.20750841 153.61907436 149.48071289 157.74975586 C149.56072037 158.93206284 149.64072784 160.11436981 149.72315979 161.33250427 C149.84666054 163.25426231 149.84666054 163.25426231 149.97265625 165.21484375 C150.06067202 166.54945915 150.14892758 167.88405875 150.2374115 169.21864319 C150.42234817 172.0219828 150.60439635 174.82549136 150.78442383 177.62915039 C151.01327317 181.1896791 151.24911711 184.74970143 151.48720646 188.30962276 C151.67110881 191.07129057 151.85119681 193.83319762 152.03021049 196.59518623 C152.15664332 198.53592059 152.28617087 200.47645256 152.41578674 202.41697693 C152.89443209 209.95691908 153.10529684 217.44523751 153 225 C147.863895 220.70664091 143.07584546 216.20045012 138.375 211.4375 C137.73304688 210.79103516 137.09109375 210.14457031 136.4296875 209.47851562 C135.18204152 208.22192136 133.93541825 206.96431065 132.68994141 205.70556641 C131.23039444 204.23252464 129.76424475 202.76603052 128.296875 201.30078125 C123.94045534 196.93695271 123.94045534 196.93695271 121.875 194.75 C121.21242188 194.06421875 120.54984375 193.3784375 119.8671875 192.671875 C115.45027227 186.35143564 114.73571254 181.47408476 115.859375 173.8359375 C117.42545596 161.83572036 117.93675081 150.73315042 110.26708984 140.66699219 C99.24866629 127.58832007 86.07135331 116.36810812 73.0476532 105.3480072 C66.91277816 100.08708591 61.23182825 94.37720746 55.52734375 88.66015625 C54.43468011 87.56816809 53.34186822 86.47632825 52.24891663 85.3846283 C49.97055162 83.10772878 47.69398217 80.82905347 45.41870117 78.54907227 C42.52190105 75.64657559 39.6206332 72.74859294 36.71799374 69.85193729 C34.46406535 67.6016457 32.21255274 65.34894908 29.96173286 63.09554863 C28.89369362 62.02684872 27.82492892 60.95887326 26.75538445 59.89167976 C20.95738489 54.1036346 15.28858097 48.2625029 10 42 C9.25492188 41.13632813 8.50984375 40.27265625 7.7421875 39.3828125 C0.74640642 30.92347889 -3.40544926 24.29839418 -3.5 13.1875 C-3.50966797 12.09296509 -3.50966797 12.09296509 -3.51953125 10.97631836 C-3.41394483 6.56656226 -2.92595886 3.38480241 0 0 Z " fill="#F43030" transform="translate(53,170)"/>
<path d="M0 0 C0.99 0.99 0.99 0.99 2 2 C1.96712417 4.72869407 1.43602229 7.2966618 1 10 C0.32453125 10.17015625 -0.3509375 10.3403125 -1.046875 10.515625 C-8.04519918 12.18539543 -8.04519918 12.18539543 -13 17 C-13.86087867 22.70332119 -12.26592007 26.44835852 -9 31 C-7.12421258 33.3210899 -5.24081419 35.62561157 -3.29296875 37.88671875 C-2 40 -2 40 -2.08203125 42.0703125 C-3.20916038 44.43968183 -4.45623656 45.54519009 -6.5 47.1875 C-12.68738978 52.36764028 -18.3472353 58.02073971 -23.625 64.125 C-25.94663934 66.80215719 -28.27034574 69.47085902 -30.6875 72.0625 C-31.22761719 72.65160156 -31.76773438 73.24070312 -32.32421875 73.84765625 C-34 75 -34 75 -35.85400391 74.79785156 C-38.55541517 73.79350435 -39.97003777 72.41817794 -42.01171875 70.38671875 C-42.76590088 69.63874023 -43.52008301 68.89076172 -44.29711914 68.12011719 C-45.08594482 67.31735352 -45.87477051 66.51458984 -46.6875 65.6875 C-47.89490845 64.46595215 -47.89490845 64.46595215 -49.12670898 63.21972656 C-65.41621228 46.51643263 -65.41621228 46.51643263 -66 38 C-63.35662875 30.79080567 -58.55303319 25.24623578 -53 20 C-52.01 19.67 -51.02 19.34 -50 19 C-50 18.34 -50 17.68 -50 17 C-47.90960378 15.29816446 -45.82915329 13.72995564 -43.625 12.1875 C-42.98304688 11.73826172 -42.34109375 11.28902344 -41.6796875 10.82617188 C-31.86858539 4.06632252 -23.94908433 1.23758373 -12 0 C-10.45787806 -0.22608269 -8.91610839 -0.45460862 -7.375 -0.6875 C-4.47435118 -0.95607859 -2.65406297 -1.1228728 0 0 Z " fill="#F93131" transform="translate(278,186)"/>
<path d="M0 0 C0.33 0 0.66 0 1 0 C1.04684424 7.90329188 1.08212851 15.80652342 1.10362434 23.70992088 C1.11395389 27.38185998 1.12790829 31.05370244 1.15087891 34.72558594 C1.39118055 74.23473511 1.39118055 74.23473511 -3.125 90.125 C-3.39763672 91.14787109 -3.39763672 91.14787109 -3.67578125 92.19140625 C-4.1055615 93.7974272 -4.5507609 95.39931309 -5 97 C-5.33 97 -5.66 97 -6 97 C-5.7525 95.4221875 -5.7525 95.4221875 -5.5 93.8125 C-4.84686168 88.82001806 -5.01291957 83.87918443 -5.16015625 78.85546875 C-5 76 -5 76 -3 73 C-1.71288775 63.85551645 -1.82590517 54.45592012 -1.71875 45.234375 C-1.68101522 42.69140587 -1.64325407 40.14843713 -1.60546875 37.60546875 C-1.56066608 34.31843228 -1.51665052 31.03138802 -1.47393799 27.74432373 C-1.41498535 23.22008636 -1.34900976 18.69598783 -1.28125 14.171875 C-1.26767456 12.97931091 -1.25409912 11.78674683 -1.2401123 10.55804443 C-1.22339478 9.46220032 -1.20667725 8.3663562 -1.18945312 7.23730469 C-1.17692505 6.2713739 -1.16439697 5.30544312 -1.15148926 4.3102417 C-1 2 -1 2 0 0 Z " fill="#AE2727" transform="translate(271,317)"/>
<path d="M0 0 C0.33 0 0.66 0 1 0 C2.58148057 7.93250572 2.145924 15.95186238 2 24 C1.98324219 25.299375 1.96648437 26.59875 1.94921875 27.9375 C1.33563436 43.92575603 -7.27101734 52.16947208 -18 63 C-18.65000977 63.66467285 -19.30001953 64.3293457 -19.96972656 65.01416016 C-20.60104492 65.65530762 -21.23236328 66.29645508 -21.8828125 66.95703125 C-22.45660645 67.54073486 -23.03040039 68.12443848 -23.62158203 68.72583008 C-25 70 -25 70 -26 70 C-26.25 64.375 -26.25 64.375 -24 61 C-22.68 61.33 -21.36 61.66 -20 62 C-20 61.01 -20 60.02 -20 59 C-19.34 59 -18.68 59 -18 59 C-18.33 57.35 -18.66 55.7 -19 54 C-18.01 54.33 -17.02 54.66 -16 55 C-15.01 54.505 -15.01 54.505 -14 54 C-13.67 53.01 -13.34 52.02 -13 51 C-12.34 51.33 -11.68 51.66 -11 52 C-11.33 51.34 -11.66 50.68 -12 50 C-12 49.01 -12 48.02 -12 47 C-11.01 46.505 -11.01 46.505 -10 46 C-7.875 46.9375 -7.875 46.9375 -6 48 C-6 46.35 -6 44.7 -6 43 C-5.01 42.505 -5.01 42.505 -4 42 C-3.28293018 40.01751285 -2.61709587 38.01584651 -2 36 C-1.67 35.34 -1.34 34.68 -1 34 C-0.84355828 31.44893971 -0.74178611 28.92081337 -0.68359375 26.3671875 C-0.66281265 25.61535187 -0.64203156 24.86351624 -0.62062073 24.08889771 C-0.55517295 21.68435915 -0.49626262 19.27971033 -0.4375 16.875 C-0.39431023 15.24608229 -0.35069579 13.61717578 -0.30664062 11.98828125 C-0.19949649 7.99230085 -0.09821567 3.99620941 0 0 Z " fill="#B22A2C" transform="translate(319,315)"/>
<path d="M0 0 C1.32 0 2.64 0 4 0 C4 0.66 4 1.32 4 2 C6.97 2.495 6.97 2.495 10 3 C10 4.65 10 6.3 10 8 C10.928125 8.1546875 10.928125 8.1546875 11.875 8.3125 C14 9 14 9 16 12 C16 12.99 16 13.98 16 15 C16.99 15 17.98 15 19 15 C19 45.69 19 76.38 19 108 C18.67 108 18.34 108 18 108 C18 77.97 18 47.94 18 17 C16.68 16.34 15.36 15.68 14 15 C12.26074219 13.50366211 12.26074219 13.50366211 10.546875 11.77734375 C9.928125 11.15666016 9.309375 10.53597656 8.671875 9.89648438 C8.03765625 9.25001953 7.4034375 8.60355469 6.75 7.9375 C6.1003125 7.28716797 5.450625 6.63683594 4.78125 5.96679688 C0 1.14034598 0 1.14034598 0 0 Z " fill="#8F1816" transform="translate(198,299)"/>
<path d="M0 0 C0.99 0.33 1.98 0.66 3 1 C2.67 21.79 2.34 42.58 2 64 C3.32 64 4.64 64 6 64 C4.46126823 67.71860179 3.52488612 68.35633541 0 71 C0 47.57 0 24.14 0 0 Z " fill="#CF3E3B" transform="translate(283,323)"/>
<path d="M0 0 C0.33 0 0.66 0 1 0 C1.13058408 11.42196078 1.26098527 22.84392362 1.39115143 34.26588917 C1.45159519 39.56926895 1.51210252 44.87264798 1.57275391 50.17602539 C1.63125747 55.29179913 1.68959564 60.40757472 1.74781799 65.52335167 C1.77008647 67.47742467 1.79241506 69.43149699 1.81480408 71.38556862 C1.8460951 74.11747691 1.87717452 76.84938754 1.90820312 79.58129883 C1.91755386 80.39337799 1.9269046 81.20545715 1.9365387 82.04214478 C1.97028418 85.02828714 2 88.01363862 2 91 C1.34 90.67 0.68 90.34 0 90 C0 60.3 0 30.6 0 0 Z " fill="#E23C39" transform="translate(217,318)"/>
<path d="M0 0 C0.66 0.66 1.32 1.32 2 2 C1.96712417 4.72869407 1.43602229 7.2966618 1 10 C-1.31 10.33 -3.62 10.66 -6 11 C-6 10.34 -6 9.68 -6 9 C-4.02 9 -2.04 9 0 9 C0 6.69 0 4.38 0 2 C-4.14093698 1.79029441 -4.14093698 1.79029441 -8 3 C-9.37548156 3.08308638 -10.75485796 3.10736016 -12.1328125 3.09765625 C-12.93847656 3.09443359 -13.74414062 3.09121094 -14.57421875 3.08789062 C-15.41597656 3.07951172 -16.25773437 3.07113281 -17.125 3.0625 C-17.97449219 3.05798828 -18.82398438 3.05347656 -19.69921875 3.04882812 C-21.79950909 3.03702874 -23.8997633 3.01909306 -26 3 C-23.23044463 1.4732437 -20.95058803 0.68535195 -17.8125 0.33203125 C-17.03132813 0.24373047 -16.25015625 0.15542969 -15.4453125 0.06445312 C-14.63835937 -0.01869141 -13.83140625 -0.10183594 -13 -0.1875 C-12.19304687 -0.28224609 -11.38609375 -0.37699219 -10.5546875 -0.47460938 C-3.56954647 -1.22960399 -3.56954647 -1.22960399 0 0 Z " fill="#A92A2A" transform="translate(278,186)"/>
<path d="M0 0 C0.33 0 0.66 0 1 0 C1.29042518 3.90992626 1.57495131 7.82023719 1.85449219 11.73095703 C1.99637936 13.69976053 2.14266349 15.6682456 2.2890625 17.63671875 C2.84369965 25.44125582 3.1316782 33.17612009 3 41 C-3.875 35.25 -3.875 35.25 -5 33 C-3.02 33.33 -1.04 33.66 1 34 C0.9278125 32.88625 0.855625 31.7725 0.78125 30.625 C0.14913979 20.40081447 -0.12558879 10.24246381 0 0 Z " fill="#A02526" transform="translate(203,354)"/>
<path d="M0 0 C0.60546875 1.83984375 0.60546875 1.83984375 1 4 C-1.19506448 7.33324607 -3.6259293 9.86308856 -7 12 C-7.66 12 -8.32 12 -9 12 C-9 12.66 -9 13.32 -9 14 C-9.66 14 -10.32 14 -11 14 C-11 14.66 -11 15.32 -11 16 C-11.66 16 -12.32 16 -13 16 C-13 16.66 -13 17.32 -13 18 C-15 19.625 -15 19.625 -17 21 C-17.66 20.67 -18.32 20.34 -19 20 C-18.67 19.34 -18.34 18.68 -18 18 C-17.34 18 -16.68 18 -16 18 C-15.73719238 17.4112207 -15.47438477 16.82244141 -15.20361328 16.21582031 C-13.94383819 13.89660759 -12.61995979 12.39050597 -10.7421875 10.546875 C-9.80439453 9.61875 -9.80439453 9.61875 -8.84765625 8.671875 C-8.19667969 8.03765625 -7.54570312 7.4034375 -6.875 6.75 C-6.21628906 6.1003125 -5.55757813 5.450625 -4.87890625 4.78125 C-3.25703357 3.18288273 -1.6306719 1.58938103 0 0 Z " fill="#A5282A" transform="translate(418,101)"/>
<path d="M0 0 C0.70125 0.144375 1.4025 0.28875 2.125 0.4375 C3.30442085 3.97576255 3.23789189 6.77898726 3.22265625 10.51171875 C3.2212413 11.1955513 3.21982635 11.87938385 3.21836853 12.5839386 C3.21277876 14.76433722 3.20022822 16.94463251 3.1875 19.125 C3.18248367 20.60481622 3.177921 22.08463406 3.17382812 23.56445312 C3.16281271 27.18883557 3.14555512 30.8131577 3.125 34.4375 C2.795 34.4375 2.465 34.4375 2.125 34.4375 C1.795 24.2075 1.465 13.9775 1.125 3.4375 C0.465 4.0975 -0.195 4.7575 -0.875 5.4375 C-2.875 7.4375 -2.875 7.4375 -6 7.5625 C-7.423125 7.500625 -7.423125 7.500625 -8.875 7.4375 C-3.7809081 0.57535558 -3.7809081 0.57535558 0 0 Z " fill="#932526" transform="translate(455.875,63.5625)"/>
<path d="M0 0 C0.33 0.99 0.66 1.98 1 3 C0.01 3.99 -0.98 4.98 -2 6 C-1.34 6.33 -0.68 6.66 0 7 C-0.75 9.4375 -0.75 9.4375 -2 12 C-4.79591037 13.21156116 -6.87423069 13 -10 13 C-10 13.66 -10 14.32 -10 15 C-11.65 15.33 -13.3 15.66 -15 16 C-10.30233025 10.33870569 -5.25276628 5.14771096 0 0 Z " fill="#F53531" transform="translate(364,156)"/>
<path d="M0 0 C6.78376359 5.55035203 12.85522968 11.76442027 19 18 C17.68 18.33 16.36 18.66 15 19 C15 18.34 15 17.68 15 17 C14.01 17 13.02 17 12 17 C11.67 16.01 11.34 15.02 11 14 C10.01 13.67 9.02 13.34 8 13 C8 11.68 8 10.36 8 9 C6.68 9 5.36 9 4 9 C0 2.25 0 2.25 0 0 Z " fill="#B52928" transform="translate(95,128)"/>
<path d="M0 0 C1.32 0 2.64 0 4 0 C2.67879172 2.93230193 1.25361803 4.98664899 -1.0390625 7.234375 C-1.90917969 8.09482422 -1.90917969 8.09482422 -2.796875 8.97265625 C-3.40015625 9.55917969 -4.0034375 10.14570313 -4.625 10.75 C-5.23601562 11.35199219 -5.84703125 11.95398438 -6.4765625 12.57421875 C-7.97988624 14.05405305 -9.48934856 15.52764676 -11 17 C-11.33 15.68 -11.66 14.36 -12 13 C-10.68 12.67 -9.36 12.34 -8 12 C-8 10.68 -8 9.36 -8 8 C-6.68 7.67 -5.36 7.34 -4 7 C-3.67 5.68 -3.34 4.36 -3 3 C-2.34 3 -1.68 3 -1 3 C-0.67 2.01 -0.34 1.02 0 0 Z " fill="#BF2B2F" transform="translate(387,245)"/>
<path d="M0 0 C1.32 0.33 2.64 0.66 4 1 C-1.94 6.94 -7.88 12.88 -14 19 C-14.33 18.01 -14.66 17.02 -15 16 C-14.34 16 -13.68 16 -13 16 C-13.33 15.01 -13.66 14.02 -14 13 C-12.68 13 -11.36 13 -10 13 C-9.34 11.68 -8.68 10.36 -8 9 C-7.34 9 -6.68 9 -6 9 C-5.67 7.02 -5.34 5.04 -5 3 C-3.35 3 -1.7 3 0 3 C0 2.01 0 1.02 0 0 Z " fill="#AF282A" transform="translate(297,288)"/>
<path d="M0 0 C0.99 0.66 1.98 1.32 3 2 C1.38989473 6.07376031 -1.53822271 8.76507069 -4.625 11.75 C-5.140625 12.25660156 -5.65625 12.76320312 -6.1875 13.28515625 C-7.45383339 14.52803902 -8.7263144 15.76465276 -10 17 C-11 14 -11 14 -10.0625 11.8125 C-9.5365625 10.9153125 -9.5365625 10.9153125 -9 10 C-8.01 10 -7.02 10 -6 10 C-6 9.01 -6 8.02 -6 7 C-5.34 7 -4.68 7 -4 7 C-3.71125 6.401875 -3.4225 5.80375 -3.125 5.1875 C-2 3 -2 3 0 0 Z " fill="#DA3035" transform="translate(414,168)"/>
<path d="M0 0 C1.32 0 2.64 0 4 0 C4 0.66 4 1.32 4 2 C6.97 2.495 6.97 2.495 10 3 C10 4.65 10 6.3 10 8 C10.61875 8.061875 11.2375 8.12375 11.875 8.1875 C14 9 14 9 15.25 11.5625 C15.4975 12.366875 15.745 13.17125 16 14 C12.85029125 13.42269489 11.22020695 12.5917026 8.984375 10.3125 C8.45585937 9.77882813 7.92734375 9.24515625 7.3828125 8.6953125 C6.84398437 8.13585937 6.30515625 7.57640625 5.75 7 C5.19570312 6.44054687 4.64140625 5.88109375 4.0703125 5.3046875 C0 1.1541718 0 1.1541718 0 0 Z " fill="#AF2828" transform="translate(198,299)"/>
<path d="M0 0 C2.31 0.33 4.62 0.66 7 1 C7 2.98 7 4.96 7 7 C7.78375 7.12375 8.5675 7.2475 9.375 7.375 C12 8 12 8 14 10 C14.125 12.625 14.125 12.625 14 15 C8.79814679 10.75358921 4.15632577 6.29331458 0 1 C0 0.67 0 0.34 0 0 Z " fill="#AE292A" transform="translate(217,235)"/>
<path d="M0 0 C4.91935902 4.11619836 9.52647956 8.40410362 14 13 C13.401875 13.144375 12.80375 13.28875 12.1875 13.4375 C10.43849596 13.8872439 8.71322977 14.42892341 7 15 C7 13.35 7 11.7 7 10 C6.01 9.67 5.02 9.34 4 9 C3.67 8.01 3.34 7.02 3 6 C2.01 5.34 1.02 4.68 0 4 C0 2.68 0 1.36 0 0 Z " fill="#A42727" transform="translate(156,190)"/>
<path d="M0 0 C0 4.00129336 -1.41373017 4.99433507 -4 8 C-4.42023438 8.53496094 -4.84046875 9.06992187 -5.2734375 9.62109375 C-8.64515472 13.88171824 -8.64515472 13.88171824 -12 15 C-13.37195574 16.29355827 -14.71182656 17.62298702 -16 19 C-16.66 18.67 -17.32 18.34 -18 18 C-12.06 12.06 -6.12 6.12 0 0 Z " fill="#B92D2F" transform="translate(266,255)"/>
<path d="M0 0 C0.33 0 0.66 0 1 0 C1.25 2.25 1.25 2.25 1 5 C-0.875 7.3125 -0.875 7.3125 -3 9 C-3.66 9 -4.32 9 -5 9 C-5.66 10.32 -6.32 11.64 -7 13 C-8.32 12.67 -9.64 12.34 -11 12 C-9.19073245 9.99698881 -7.377813 7.99751914 -5.5625 6 C-4.7880957 5.14148438 -4.7880957 5.14148438 -3.99804688 4.265625 C-2.6858708 2.82480421 -1.34509096 1.41014216 0 0 Z " fill="#B22828" transform="translate(433,85)"/>
<path d="M0 0 C0.33 0.99 0.66 1.98 1 3 C-0.22062521 4.44475986 -1.45192126 5.88050764 -2.6875 7.3125 C-3.37199219 8.11300781 -4.05648438 8.91351563 -4.76171875 9.73828125 C-7.04026068 12.04068226 -9.08967337 13.58586119 -12 15 C-12.66 14.67 -13.32 14.34 -14 14 C-9.38 9.38 -4.76 4.76 0 0 Z " fill="#A72627" transform="translate(401,203)"/>
<path d="M0 0 C4.52615993 3.67832017 8.39424999 7.41086363 12 12 C11.01 12.495 11.01 12.495 10 13 C10 12.34 10 11.68 10 11 C8.68 11.33 7.36 11.66 6 12 C6 11.34 6 10.68 6 10 C5.360625 9.7525 4.72125 9.505 4.0625 9.25 C2 8 2 8 1.3125 6.125 C1.209375 5.42375 1.10625 4.7225 1 4 C0.674729 2.66467694 0.34249804 1.33100863 0 0 Z " fill="#C22D2B" transform="translate(135,169)"/>
<path d="M0 0 C0.99 0.33 1.98 0.66 3 1 C-0.63 4.63 -4.26 8.26 -8 12 C-8.66 10.68 -9.32 9.36 -10 8 C-8 6 -6 4 -4 2 C-2.68 2 -1.36 2 0 2 C0 1.34 0 0.68 0 0 Z " fill="#C32A2F" transform="translate(355,279)"/>
<path d="M0 0 C-0.34347427 3.20575987 -0.9707854 3.97516759 -3.5 6.125 C-4.325 6.74375 -5.15 7.3625 -6 8 C-6.33 8.66 -6.66 9.32 -7 10 C-7.66 10 -8.32 10 -9 10 C-9.33 11.32 -9.66 12.64 -10 14 C-10.66 13.67 -11.32 13.34 -12 13 C-10.66182195 9.02031425 -8.99662286 6.61251238 -6 3.6875 C-5.29875 2.99011719 -4.5975 2.29273438 -3.875 1.57421875 C-2 0 -2 0 0 0 Z " fill="#AC282A" transform="translate(228,205)"/>
<path d="M0 0 C0.33 0 0.66 0 1 0 C1.04898438 0.94101563 1.09796875 1.88203125 1.1484375 2.8515625 C1.22320312 4.09679687 1.29796875 5.34203125 1.375 6.625 C1.44460937 7.85476562 1.51421875 9.08453125 1.5859375 10.3515625 C1.98241083 13.84501621 2.8370212 16.70016586 4 20 C4 20.99 4 21.98 4 23 C4.99 23.33 5.98 23.66 7 24 C6.67 24.99 6.34 25.98 6 27 C0.63903417 20.74553987 -0.2991764 16.179517 -0.125 8.1875 C-0.11597656 7.39923828 -0.10695312 6.61097656 -0.09765625 5.79882812 C-0.07422504 3.86575334 -0.03835838 1.9328362 0 0 Z " fill="#B52E2E" transform="translate(50,175)"/>
<path d="M0 0 C0.33 0 0.66 0 1 0 C1.36741339 8.55937129 0.73977333 15.86222087 -2 24 C-2.33 24 -2.66 24 -3 24 C-2.7525 22.4221875 -2.7525 22.4221875 -2.5 20.8125 C-1.84686168 15.82001806 -2.01291957 10.87918443 -2.16015625 5.85546875 C-2 3 -2 3 0 0 Z " fill="#BE2D2F" transform="translate(268,390)"/>
<path d="M0 0 C-0.3125 1.9375 -0.3125 1.9375 -1 4 C-1.99 4.33 -2.98 4.66 -4 5 C-5.09166275 6.93330603 -5.09166275 6.93330603 -6 9 C-6.66 9.66 -7.32 10.32 -8 11 C-10.125 10.625 -10.125 10.625 -12 10 C-10.38113585 8.32737283 -8.7547271 6.66204463 -7.125 5 C-6.22007812 4.071875 -5.31515625 3.14375 -4.3828125 2.1875 C-2 0 -2 0 0 0 Z " fill="#CA2F31" transform="translate(299,224)"/>
<path d="M0 0 C-2.35953094 2.35953094 -3.77895617 2.49141413 -7 3 C-8.65 1.02 -10.3 -0.96 -12 -3 C-7.15149569 -4.79574234 -4.07880723 -2.71920482 0 0 Z " fill="#DC2E2B" transform="translate(111,251)"/>
<path d="M0 0 C1.2065625 0.0309375 1.2065625 0.0309375 2.4375 0.0625 C0.96028578 3.51451639 -1.00044001 5.71211936 -3.6875 8.3125 C-4.41195313 9.01890625 -5.13640625 9.7253125 -5.8828125 10.453125 C-6.43710937 10.98421875 -6.99140625 11.5153125 -7.5625 12.0625 C-7.8925 11.0725 -8.2225 10.0825 -8.5625 9.0625 C-7.1875 7.5625 -7.1875 7.5625 -5.5625 6.0625 C-4.9025 6.0625 -4.2425 6.0625 -3.5625 6.0625 C-3.583125 5.258125 -3.60375 4.45375 -3.625 3.625 C-3.54067676 0.16774696 -3.45725304 0.08432324 0 0 Z " fill="#C62F33" transform="translate(380.5625,203.9375)"/>
<path d="M0 0 C1 2 1 2 0.3125 5.0625 C-0.120625 6.031875 -0.55375 7.00125 -1 8 C-2.9375 8.5625 -2.9375 8.5625 -5 9 C-5.474375 9.825 -5.94875 10.65 -6.4375 11.5 C-8 14 -8 14 -10.6875 14.8125 C-11.450625 14.874375 -12.21375 14.93625 -13 15 C-8.70214922 9.96836982 -4.36574458 4.97281557 0 0 Z " fill="#B4272C" transform="translate(415,188)"/>
<path d="M0 0 C0.99 0 1.98 0 3 0 C1.58832253 5.26170694 -0.74850232 8.72171358 -4 13 C-4.87840996 9.90279155 -4.99435406 8.09354597 -4 5 C-2.68 5 -1.36 5 0 5 C0 3.35 0 1.7 0 0 Z " fill="#B22B2C" transform="translate(431,196)"/>
<path d="M0 0 C4.66132863 3.57729872 7.73911534 7.10867301 11 12 C10.01 12.495 10.01 12.495 9 13 C9 12.34 9 11.68 9 11 C8.34 11 7.68 11 7 11 C6.525625 10.505 6.05125 10.01 5.5625 9.5 C4.00030058 7.65373409 4.00030058 7.65373409 1 8 C1.33 6.68 1.66 5.36 2 4 C1.34 4 0.68 4 0 4 C0 2.68 0 1.36 0 0 Z " fill="#B72D2D" transform="translate(170,204)"/>
<path d="M0 0 C0.99 0.66 1.98 1.32 3 2 C2.95875 2.763125 2.9175 3.52625 2.875 4.3125 C2.73123768 7.29135009 2.73123768 7.29135009 5.5 9.8125 C6.325 10.534375 7.15 11.25625 8 12 C7.67 12.66 7.34 13.32 7 14 C3.7 10.7 0.4 7.4 -3 4 C-2.34 3.67 -1.68 3.34 -1 3 C-0.67 2.01 -0.34 1.02 0 0 Z " fill="#D23131" transform="translate(187,370)"/>
<path d="M0 0 C0.99 0.66 1.98 1.32 3 2 C1.7934375 2.8971875 1.7934375 2.8971875 0.5625 3.8125 C-2.22327984 5.80947276 -2.22327984 5.80947276 -3 9 C-3.99 9 -4.98 9 -6 9 C-6 9.66 -6 10.32 -6 11 C-6.99 10.67 -7.98 10.34 -9 10 C-6.03 6.7 -3.06 3.4 0 0 Z " fill="#AF2729" transform="translate(429,173)"/>
<path d="M0 0 C0.33 1.32 0.66 2.64 1 4 C0.34 4 -0.32 4 -1 4 C-1 4.66 -1 5.32 -1 6 C-1.66 6 -2.32 6 -3 6 C-3.66 7.32 -4.32 8.64 -5 10 C-5.66 10 -6.32 10 -7 10 C-7 10.99 -7 11.98 -7 13 C-8.32 12.67 -9.64 12.34 -11 12 C-10.54109375 11.55269531 -10.0821875 11.10539062 -9.609375 10.64453125 C-6.16447701 7.25029352 -2.92744915 3.86423288 0 0 Z " fill="#D03433" transform="translate(342,263)"/>
<path d="M0 0 C-1.5830577 4.2742558 -4.50568404 6.26531794 -8 9 C-8.125 6.125 -8.125 6.125 -8 3 C-5.48696401 0.48696401 -3.51117809 0 0 0 Z " fill="#E63134" transform="translate(369,218)"/>
<path d="M0 0 C0.60546875 1.83203125 0.60546875 1.83203125 1 4 C-0.80450953 6.87384851 -2.01312923 8.64363 -5.25 9.8125 C-5.8275 9.874375 -6.405 9.93625 -7 10 C-6.42424336 6.64749299 -5.40693737 5.06181371 -2.9375 2.75 C-2.38964844 2.22921875 -1.84179688 1.7084375 -1.27734375 1.171875 C-0.64505859 0.59179688 -0.64505859 0.59179688 0 0 Z " fill="#C22B2E" transform="translate(418,101)"/>
<path d="M0 0 C1.65 0 3.3 0 5 0 C5.99 2.97 6.98 5.94 8 9 C3.97777612 6.98888806 2.51685747 5.59551067 0 2 C0 1.34 0 0.68 0 0 Z " fill="#C72D30" transform="translate(176,364)"/>
<path d="M0 0 C0.99 0.66 1.98 1.32 3 2 C-0.82042691 6.1842771 -3.32976351 8.64994369 -9 10 C-8.06409496 8.8944811 -7.12620142 7.79064547 -6.1875 6.6875 C-5.66542969 6.07261719 -5.14335937 5.45773437 -4.60546875 4.82421875 C-3.12827531 3.14575321 -1.59960869 1.56117966 0 0 Z " fill="#C62C2D" transform="translate(320,286)"/>
<path d="M0 0 C0 0.66 0 1.32 0 2 C0.99 1.67 1.98 1.34 3 1 C3.33 2.65 3.66 4.3 4 6 C3.34 6 2.68 6 2 6 C1.67 6.66 1.34 7.32 1 8 C-0.98 5.69 -2.96 3.38 -5 1 C-2 0 -2 0 0 0 Z " fill="#DD3131" transform="translate(107,201)"/>
<path d="M0 0 C3.59634744 3.49359465 6.83451967 7.11098131 10 11 C9.01 11.495 9.01 11.495 8 12 C8 11.34 8 10.68 8 10 C7.34 10 6.68 10 6 10 C6 9.34 6 8.68 6 8 C4.02 7.34 2.04 6.68 0 6 C0 4.02 0 2.04 0 0 Z " fill="#CA3130" transform="translate(116,149)"/>
<path d="M0 0 C0.99 0 1.98 0 3 0 C3 0.99 3 1.98 3 3 C3.66 3 4.32 3 5 3 C7.1875 5.3125 7.1875 5.3125 9 8 C8.67 8.99 8.34 9.98 8 11 C6.65772182 9.73861805 5.32641323 8.46555441 4 7.1875 C3.2575 6.47980469 2.515 5.77210938 1.75 5.04296875 C0 3 0 3 0 0 Z " fill="#D13536" transform="translate(224,412)"/>
<path d="M0 0 C1.12894876 0.93274109 2.25300876 1.87140122 3.375 2.8125 C4.00148437 3.33457031 4.62796875 3.85664063 5.2734375 4.39453125 C7 6 7 6 9 9 C6.625 9.125 6.625 9.125 4 9 C3.34 8.34 2.68 7.68 2 7 C2 6.01 2 5.02 2 4 C1.34 4 0.68 4 0 4 C0 2.68 0 1.36 0 0 Z " fill="#B1282B" transform="translate(217,252)"/>
<path d="M0 0 C0.75 1.75 0.75 1.75 1 4 C-1.71699158 7.69510854 -4.65638712 8.81537831 -9 10 C-8.06409496 8.8944811 -7.12620142 7.79064547 -6.1875 6.6875 C-5.66542969 6.07261719 -5.14335937 5.45773437 -4.60546875 4.82421875 C-3.12827531 3.14575321 -1.59960869 1.56117966 0 0 Z " fill="#C8312F" transform="translate(330,276)"/>
<path d="M0 0 C0.66 0 1.32 0 2 0 C0.61811547 3.21043882 -0.92421903 5.04936365 -3.625 7.25 C-4.57246094 8.03117187 -4.57246094 8.03117187 -5.5390625 8.828125 C-6.02117187 9.21484375 -6.50328125 9.6015625 -7 10 C-7.33 8.68 -7.66 7.36 -8 6 C-6.35 5.67 -4.7 5.34 -3 5 C-3.33 4.01 -3.66 3.02 -4 2 C-2.68 2 -1.36 2 0 2 C0 1.34 0 0.68 0 0 Z " fill="#C12C31" transform="translate(371,263)"/>
<path d="M0 0 C0.99 0.33 1.98 0.66 3 1 C1.02 3.31 -0.96 5.62 -3 8 C-4.32 7.67 -5.64 7.34 -7 7 C-4.69 4.69 -2.38 2.38 0 0 Z " fill="#CF3032" transform="translate(307,214)"/>
<path d="M0 0 C4.44936709 -0.36075949 4.44936709 -0.36075949 6.8125 1.1875 C8.36678206 3.55982525 8.22537188 5.22041345 8 8 C6.85073734 7.04578192 5.70569459 6.08647955 4.5625 5.125 C3.92441406 4.59132813 3.28632813 4.05765625 2.62890625 3.5078125 C1 2 1 2 0 0 Z " fill="#D93435" transform="translate(182,282)"/>
<path d="M0 0 C1.98 0 3.96 0 6 0 C5.04578192 1.14926266 4.08647955 2.29430541 3.125 3.4375 C2.59132813 4.07558594 2.05765625 4.71367187 1.5078125 5.37109375 C0 7 0 7 -2 8 C-2.33 6.68 -2.66 5.36 -3 4 C-2.34 3.67 -1.68 3.34 -1 3 C-0.67 2.01 -0.34 1.02 0 0 Z " fill="#B0292C" transform="translate(319,264)"/>
<path d="M0 0 C5.75 1.625 5.75 1.625 8 5 C7.625 7.1875 7.625 7.1875 7 9 C5.83037314 7.69013727 4.66437056 6.3770374 3.5 5.0625 C2.8503125 4.33160156 2.200625 3.60070312 1.53125 2.84765625 C0 1 0 1 0 0 Z " fill="#B2292C" transform="translate(68,216)"/>
<path d="M0 0 C-0.57344937 2.86724686 -0.8614515 3.8614515 -3 6 C-3.99 6 -4.98 6 -6 6 C-6 7.32 -6 8.64 -6 10 C-6.66 9.67 -7.32 9.34 -8 9 C-8 6 -8 6 -6.7578125 4.39453125 C-5.94957031 3.61142578 -5.94957031 3.61142578 -5.125 2.8125 C-4.59132813 2.28269531 -4.05765625 1.75289063 -3.5078125 1.20703125 C-2 0 -2 0 0 0 Z " fill="#CD2F34" transform="translate(400,122)"/>
<path d="M0 0 C3 1 3 1 4.6875 4.0625 C5.120625 5.031875 5.55375 6.00125 6 7 C5.01 7 4.02 7 3 7 C3 6.34 3 5.68 3 5 C2.01 4.67 1.02 4.34 0 4 C-0.66 5.65 -1.32 7.3 -2 9 C-2.6875 7.3125 -2.6875 7.3125 -3 5 C-1.5625 2.25 -1.5625 2.25 0 0 Z " fill="#982427" transform="translate(32,61)"/>
<path d="M0 0 C1.12894876 0.93274109 2.25300876 1.87140122 3.375 2.8125 C4.00148437 3.33457031 4.62796875 3.85664063 5.2734375 4.39453125 C7 6 7 6 9 9 C8.01 9.495 8.01 9.495 7 10 C7 9.34 7 8.68 7 8 C5.02 7.34 3.04 6.68 1 6 C0.67 4.02 0.34 2.04 0 0 Z " fill="#CA3034" transform="translate(183,218)"/>
<path d="M0 0 C0.66 0.99 1.32 1.98 2 3 C0.875 4.9375 0.875 4.9375 -1 7 C-4.1875 7.75 -4.1875 7.75 -7 8 C-6.02133662 6.85373678 -5.04205413 5.70800212 -4.0625 4.5625 C-3.51722656 3.92441406 -2.97195313 3.28632812 -2.41015625 2.62890625 C-1.63204305 1.73008851 -0.84063472 0.84063472 0 0 Z " fill="#BB2A2C" transform="translate(441,77)"/>
<path d="M0 0 C0.66 0 1.32 0 2 0 C0.68139111 4.61513112 -1.21355437 8.09897612 -4 12 C-4.625 10.125 -4.625 10.125 -5 8 C-4.34 7.34 -3.68 6.68 -3 6 C-2.3574765 3.93125966 -2.3574765 3.93125966 -2 2 C-1.34 2 -0.68 2 0 2 C0 1.34 0 0.68 0 0 Z " fill="#B42A2D" transform="translate(263,414)"/>
<path d="M0 0 C1.12894876 0.93274109 2.25300876 1.87140122 3.375 2.8125 C4.00148437 3.33457031 4.62796875 3.85664063 5.2734375 4.39453125 C7 6 7 6 9 9 C7.35 9 5.7 9 4 9 C3.67 8.01 3.34 7.02 3 6 C2.34 5.67 1.68 5.34 1 5 C0.375 2.4375 0.375 2.4375 0 0 Z " fill="#B02827" transform="translate(208,243)"/>
<path d="M0 0 C0.66 1.32 1.32 2.64 2 4 C1.34 4.66 0.68 5.32 0 6 C-0.66 6 -1.32 6 -2 6 C-2.33 6.66 -2.66 7.32 -3 8 C-4.32 7.67 -5.64 7.34 -7 7 C-4.69 4.69 -2.38 2.38 0 0 Z " fill="#B02726" transform="translate(364,241)"/>
<path d="M0 0 C1.12894876 0.93274109 2.25300876 1.87140122 3.375 2.8125 C4.00148438 3.33457031 4.62796875 3.85664063 5.2734375 4.39453125 C7 6 7 6 9 9 C7.35 9 5.7 9 4 9 C4 8.01 4 7.02 4 6 C3.34 6 2.68 6 2 6 C1.34 4.02 0.68 2.04 0 0 Z " fill="#B92C2B" transform="translate(110,229)"/>
<path d="M0 0 C0 3.10551666 -0.5393715 4.35261084 -2 7 C-2.66 7 -3.32 7 -4 7 C-4 7.66 -4 8.32 -4 9 C-5.65 9.33 -7.3 9.66 -9 10 C-8.06409496 8.8944811 -7.12620142 7.79064547 -6.1875 6.6875 C-5.66542969 6.07261719 -5.14335937 5.45773438 -4.60546875 4.82421875 C-3.12827531 3.14575321 -1.59960869 1.56117966 0 0 Z " fill="#CC3137" transform="translate(327,194)"/>
<path d="M0 0 C1.32 0.66 2.64 1.32 4 2 C2.60667426 5.36720387 1.0210714 6.9859524 -2 9 C-2 7.35 -2 5.7 -2 4 C-1.34 3.67 -0.68 3.34 0 3 C0 2.01 0 1.02 0 0 Z " fill="#B52928" transform="translate(305,366)"/>
<path d="M0 0 C0.99 0.33 1.98 0.66 3 1 C1.60667426 4.36720387 0.0210714 5.9859524 -3 8 C-3.36923077 3.44615385 -3.36923077 3.44615385 -1.5 1.1875 C-1.005 0.795625 -0.51 0.40375 0 0 Z " fill="#DD3534" transform="translate(357,226)"/>
<path d="M0 0 C0.33 1.32 0.66 2.64 1 4 C-0.6875 6.3125 -0.6875 6.3125 -3 8 C-4.32 7.67 -5.64 7.34 -7 7 C-4.69 4.69 -2.38 2.38 0 0 Z " fill="#CD3032" transform="translate(317,204)"/>
<path d="M0 0 C3.98069267 2.87494471 6.43571997 5.82117329 9 10 C8.01 10 7.02 10 6 10 C6 9.34 6 8.68 6 8 C5.34 8 4.68 8 4 8 C2.0276801 6.0276801 1.10526098 4.52631081 0 2 C0 1.34 0 0.68 0 0 Z " fill="#B42A2D" transform="translate(65,182)"/>
<path d="M0 0 C1.98 0 3.96 0 6 0 C4.64244119 1.95149079 3.46186324 2.87644423 1.16015625 3.4921875 C-3.32893817 4.17767305 -4.67975842 4.16012079 -9 2 C-4.545 1.505 -4.545 1.505 0 1 C0 0.67 0 0.34 0 0 Z " fill="#9F2423" transform="translate(251,427)"/>
<path d="M0 0 C1.65 0 3.3 0 5 0 C3.60667426 3.36720387 2.0210714 4.9859524 -1 7 C-0.67 4.69 -0.34 2.38 0 0 Z " fill="#C0292E" transform="translate(394,237)"/>
<path d="M0 0 C0.99 0.33 1.98 0.66 3 1 C1.60667426 4.36720387 0.0210714 5.9859524 -3 8 C-3.36923077 3.44615385 -3.36923077 3.44615385 -1.5 1.1875 C-1.005 0.795625 -0.51 0.40375 0 0 Z " fill="#D42F34" transform="translate(389,194)"/>
<path d="M0 0 C2.475 0.99 2.475 0.99 5 2 C3.84826645 4.46800047 2.95216435 6.04783565 1 8 C-0.4606285 5.35261084 -1 4.10551666 -1 1 C-0.67 0.67 -0.34 0.34 0 0 Z " fill="#DB2F33" transform="translate(308,361)"/>
<path d="M0 0 C1.14926266 0.95421808 2.29430541 1.91352045 3.4375 2.875 C4.07558594 3.40867187 4.71367187 3.94234375 5.37109375 4.4921875 C7 6 7 6 8 8 C6.02 8 4.04 8 2 8 C2.33 6.68 2.66 5.36 3 4 C2.01 4 1.02 4 0 4 C0 2.68 0 1.36 0 0 Z " fill="#A12323" transform="translate(226,261)"/>
<path d="M0 0 C1.1725131 0.95117134 2.33787015 1.91117009 3.5 2.875 C4.47453125 3.67550781 4.47453125 3.67550781 5.46875 4.4921875 C5.9740625 4.98976562 6.479375 5.48734375 7 6 C7 6.66 7 7.32 7 8 C2.25 6.125 2.25 6.125 0 5 C0 3.35 0 1.7 0 0 Z " fill="#A22527" transform="translate(89,207)"/>
<path d="M0 0 C0.33 0 0.66 0 1 0 C1 2.31 1 4.62 1 7 C-0.98 7 -2.96 7 -5 7 C-5 7.66 -5 8.32 -5 9 C-5.99 9 -6.98 9 -8 9 C-8 8.34 -8 7.68 -8 7 C-7.05125 6.773125 -6.1025 6.54625 -5.125 6.3125 C-1.80676612 5.30916286 -1.80676612 5.30916286 -0.625 2.375 C-0.41875 1.59125 -0.2125 0.8075 0 0 Z " fill="#F1363E" transform="translate(277,188)"/>
<path d="M0 0 C0.33 0.99 0.66 1.98 1 3 C-0.65 4.65 -2.3 6.3 -4 8 C-4.99 7.67 -5.98 7.34 -7 7 C-4.69 4.69 -2.38 2.38 0 0 Z " fill="#A22526" transform="translate(291,315)"/>
<path d="M0 0 C1.32 0.33 2.64 0.66 4 1 C2.8572081 2.16964602 1.71068285 3.33564556 0.5625 4.5 C-0.07558594 5.1496875 -0.71367187 5.799375 -1.37109375 6.46875 C-3 8 -3 8 -4 8 C-4 6.35 -4 4.7 -4 3 C-3.01 3.33 -2.02 3.66 -1 4 C-0.67 2.68 -0.34 1.36 0 0 Z " fill="#A12727" transform="translate(313,272)"/>
<path d="M0 0 C0.99 0 1.98 0 3 0 C3.33 0.99 3.66 1.98 4 3 C1.03 5.475 1.03 5.475 -2 8 C-2 6.68 -2 5.36 -2 4 C-1.34 3.67 -0.68 3.34 0 3 C0 2.01 0 1.02 0 0 Z " fill="#C92A2C" transform="translate(360,271)"/>
<path d="M0 0 C2.31 0.66 4.62 1.32 7 2 C7.33 3.98 7.66 5.96 8 8 C6.85073734 7.04578192 5.70569459 6.08647955 4.5625 5.125 C3.92441406 4.59132812 3.28632813 4.05765625 2.62890625 3.5078125 C1 2 1 2 0 0 Z " fill="#A62627" transform="translate(231,250)"/>
<path d="M0 0 C1.32 0 2.64 0 4 0 C4 1.65 4 3.3 4 5 C4.66 5 5.32 5 6 5 C5.67 5.99 5.34 6.98 5 8 C2.5 5.6875 2.5 5.6875 0 3 C0 2.01 0 1.02 0 0 Z " fill="#D73435" transform="translate(144,242)"/>
<path d="M0 0 C0.33 0 0.66 0 1 0 C1.12117187 0.78246094 1.24234375 1.56492188 1.3671875 2.37109375 C1.53476563 3.38300781 1.70234375 4.39492187 1.875 5.4375 C2.03742188 6.44683594 2.19984375 7.45617187 2.3671875 8.49609375 C2.57601562 9.32238281 2.78484375 10.14867187 3 11 C3.66 11.33 4.32 11.66 5 12 C4.01 12 3.02 12 2 12 C-0.05257931 8.55166676 -1.0632763 6.68338409 -0.6875 2.625 C-0.460625 1.75875 -0.23375 0.8925 0 0 Z " fill="#992526" transform="translate(213,221)"/>
<path d="M0 0 C0.66 0.33 1.32 0.66 2 1 C1.34 2.65 0.68 4.3 0 6 C-1.98 6 -3.96 6 -6 6 C-4 4 -2 2 0 0 Z " fill="#BC2C2C" transform="translate(236,197)"/>
<path d="M0 0 C0.33 1.32 0.66 2.64 1 4 C0.01 4.33 -0.98 4.66 -2 5 C-2 5.66 -2 6.32 -2 7 C-3.65 7.33 -5.3 7.66 -7 8 C-6.02133662 6.85373678 -5.04205413 5.70800212 -4.0625 4.5625 C-3.51722656 3.92441406 -2.97195313 3.28632813 -2.41015625 2.62890625 C-1.63204305 1.73008851 -0.84063472 0.84063472 0 0 Z " fill="#992426" transform="translate(356,164)"/>
<path d="M0 0 C0.99 0.33 1.98 0.66 3 1 C2.67 1.66 2.34 2.32 2 3 C1.01 3.33 0.02 3.66 -1 4 C-2.37195574 5.29355827 -3.71182656 6.62298702 -5 8 C-5.66 7.67 -6.32 7.34 -7 7 C-4.69 4.69 -2.38 2.38 0 0 Z " fill="#CB3336" transform="translate(255,266)"/>
<path d="M0 0 C1.32 0.33 2.64 0.66 4 1 C4 1.66 4 2.32 4 3 C5.32 3 6.64 3 8 3 C8 4.65 8 6.3 8 8 C6.85073734 7.04578192 5.70569459 6.08647955 4.5625 5.125 C3.92441406 4.59132812 3.28632813 4.05765625 2.62890625 3.5078125 C1 2 1 2 0 0 Z " fill="#CB3434" transform="translate(150,250)"/>
<path d="M0 0 C3.70066609 0.90460727 5.56497978 1.43868358 7.9375 4.5 C8.288125 5.325 8.63875 6.15 9 7 C8.67 7.66 8.34 8.32 8 9 C6.66368764 7.6905332 5.33102075 6.37734515 4 5.0625 C3.2575 4.33160156 2.515 3.60070312 1.75 2.84765625 C0 1 0 1 0 0 Z " fill="#C33234" transform="translate(109,209)"/>
<path d="M0 0 C1.16959987 0.97566112 2.33561177 1.955625 3.5 2.9375 C4.1496875 3.48277344 4.799375 4.02804688 5.46875 4.58984375 C5.9740625 5.05519531 6.479375 5.52054688 7 6 C7 6.33 7 6.66 7 7 C5.35 7 3.7 7 2 7 C1.34 4.69 0.68 2.38 0 0 Z " fill="#B22929" transform="translate(80,198)"/>
<path d="M0 0 C0.99 0.33 1.98 0.66 3 1 C1.60667426 4.36720387 0.0210714 5.9859524 -3 8 C-3 6.68 -3 5.36 -3 4 C-2.34 4 -1.68 4 -1 4 C-0.67 2.68 -0.34 1.36 0 0 Z " fill="#D23137" transform="translate(397,186)"/>
<path d="M0 0 C0.4125 0.556875 0.825 1.11375 1.25 1.6875 C3.12256399 4.16195956 5.05339344 6.5835229 7 9 C6.67 9.66 6.34 10.32 6 11 C1.77202073 8.00518135 1.77202073 8.00518135 0 6 C-0.375 2.6875 -0.375 2.6875 0 0 Z " fill="#A42627" transform="translate(264,210)"/>
<path d="M0 0 C0 2.66420516 -0.09162237 4.52260646 -1 7 C-1.99 7.33 -2.98 7.66 -4 8 C-4.66 7.34 -5.32 6.68 -6 6 C-4.02 4.02 -2.04 2.04 0 0 Z " fill="#C12B2C" transform="translate(386,134)"/>
<path d="M0 0 C0.33 0 0.66 0 1 0 C2.29925791 4.33085971 3.343621 8.51474352 4 13 C1.78631706 10.78631706 0.13447079 9.06983375 -0.265625 5.88671875 C-0.25166986 3.92253213 -0.13286356 1.9597375 0 0 Z " fill="#B42E30" transform="translate(170,350)"/>
<path d="M0 0 C1.65 0 3.3 0 5 0 C3.02 2.31 1.04 4.62 -1 7 C-1.33 5.68 -1.66 4.36 -2 3 C-1.01 3 -0.02 3 1 3 C0.67 2.01 0.34 1.02 0 0 Z " fill="#982527" transform="translate(331,253)"/>
<path d="M0 0 C2.31 1.98 4.62 3.96 7 6 C4 7 4 7 1 6 C0.67 4.02 0.34 2.04 0 0 Z " fill="#B62A2A" transform="translate(129,248)"/>
<path d="M0 0 C1.65 0 3.3 0 5 0 C3.63016497 3.16115776 3.0109362 3.9927092 0 6 C0 4.02 0 2.04 0 0 Z " fill="#AC282A" transform="translate(252,246)"/>
<path d="M0 0 C3.875 1.875 3.875 1.875 5 3 C5.04063832 4.66617115 5.042721 6.33388095 5 8 C2.21611025 6.29374499 1.14615794 5.52373261 0.25 2.3125 C0.1675 1.549375 0.085 0.78625 0 0 Z " fill="#CD2C2E" transform="translate(226,242)"/>
<path d="M0 0 C1.875 0.3125 1.875 0.3125 4 1 C4.66 1.99 5.32 2.98 6 4 C3.69 4.33 1.38 4.66 -1 5 C-0.67 3.35 -0.34 1.7 0 0 Z " fill="#C1292C" transform="translate(164,200)"/>
<path d="M0 0 C0.33 0.66 0.66 1.32 1 2 C0.34 2 -0.32 2 -1 2 C-0.67 3.32 -0.34 4.64 0 6 C-2.31 6.66 -4.62 7.32 -7 8 C-6.0409375 7.1028125 -6.0409375 7.1028125 -5.0625 6.1875 C-2.79689611 4.09189663 -2.79689611 4.09189663 -2 1 C-1.34 0.67 -0.68 0.34 0 0 Z " fill="#F33638" transform="translate(367,155)"/>
<path d="M0 0 C0.33 0.66 0.66 1.32 1 2 C0.22265625 3.7265625 0.22265625 3.7265625 -0.9375 5.625 C-1.618125 6.73875 -2.29875 7.8525 -3 9 C-3.33 9 -3.66 9 -4 9 C-4 7.02 -4 5.04 -4 3 C-3.34 3 -2.68 3 -2 3 C-2 2.34 -2 1.68 -2 1 C-1.34 0.67 -0.68 0.34 0 0 Z " fill="#B52A2B" transform="translate(455,126)"/>
<path d="M0 0 C0.66 0.33 1.32 0.66 2 1 C1.6875 3.375 1.6875 3.375 1 6 C0.01 6.66 -0.98 7.32 -2 8 C-2.125 5.125 -2.125 5.125 -2 2 C-1.34 1.34 -0.68 0.68 0 0 Z " fill="#B82C2A" transform="translate(295,377)"/>
<path d="M0 0 C0.99 0.33 1.98 0.66 3 1 C2.360625 1.185625 1.72125 1.37125 1.0625 1.5625 C-1.42126213 2.94246056 -1.42126213 2.94246056 -1.75 6.625 C-1.8325 7.73875 -1.915 8.8525 -2 10 C-2.33 10 -2.66 10 -3 10 C-4.125 4.25 -4.125 4.25 -3 2 C-2.01 2 -1.02 2 0 2 C0 1.34 0 0.68 0 0 Z " fill="#D03031" transform="translate(272,314)"/>
<path d="M0 0 C2.31 0.33 4.62 0.66 7 1 C5.35 2.65 3.7 4.3 2 6 C1.34 4.02 0.68 2.04 0 0 Z " fill="#B12727" transform="translate(338,243)"/>
<path d="M0 0 C2.4375 0.8125 2.4375 0.8125 5 2 C5.33 2.99 5.66 3.98 6 5 C6.66 5 7.32 5 8 5 C7.67 5.99 7.34 6.98 7 8 C5.83035398 6.8572081 4.66435444 5.71068285 3.5 4.5625 C2.8503125 3.92441406 2.200625 3.28632813 1.53125 2.62890625 C0 1 0 1 0 0 Z " fill="#C03434" transform="translate(126,226)"/>
<path d="M0 0 C1.32 0 2.64 0 4 0 C3.60196439 2.88575819 3.20990931 3.82189513 0.9375 5.75 C0.298125 6.1625 -0.34125 6.575 -1 7 C-1 6.01 -1 5.02 -1 4 C-0.34 4 0.32 4 1 4 C0.67 2.68 0.34 1.36 0 0 Z " fill="#AD272B" transform="translate(410,221)"/>
<path d="M0 0 C1.32 0.33 2.64 0.66 4 1 C1.03 3.475 1.03 3.475 -2 6 C-2.33 4.68 -2.66 3.36 -3 2 C-2.01 2 -1.02 2 0 2 C0 1.34 0 0.68 0 0 Z " fill="#B5292C" transform="translate(421,211)"/>
<path d="M0 0 C1.32 0.66 2.64 1.32 4 2 C1.03 4.475 1.03 4.475 -2 7 C-2.125 4.625 -2.125 4.625 -2 2 C-1.34 1.34 -0.68 0.68 0 0 Z " fill="#C12D30" transform="translate(445,137)"/>
<path d="M0 0 C0.33 0.66 0.66 1.32 1 2 C1.99 2.33 2.98 2.66 4 3 C2 5 2 5 -1.125 5.125 C-2.548125 5.063125 -2.548125 5.063125 -4 5 C-2.68 3.35 -1.36 1.7 0 0 Z " fill="#D32D30" transform="translate(451,66)"/>
<path d="M0 0 C2.475 0.495 2.475 0.495 5 1 C5.33 2.98 5.66 4.96 6 7 C1.125 2.25 1.125 2.25 0 0 Z " fill="#AC292B" transform="translate(190,290)"/>
<path d="M0 0 C-2.97 2.475 -2.97 2.475 -6 5 C-6 3.35 -6 1.7 -6 0 C-3 -1 -3 -1 0 0 Z " fill="#A5282B" transform="translate(307,283)"/>
<path d="M0 0 C-1.25 1.5625 -1.25 1.5625 -3 3 C-5.125 2.8125 -5.125 2.8125 -7 2 C-7.33 1.34 -7.66 0.68 -8 0 C-4.71303767 -0.79953138 -3.28976808 -1.09658936 0 0 Z " fill="#942327" transform="translate(247,258)"/>
<path d="M0 0 C0.33 0.99 0.66 1.98 1 3 C-0.98 4.32 -2.96 5.64 -5 7 C-5.66 6.67 -6.32 6.34 -7 6 C-4.69 4.02 -2.38 2.04 0 0 Z " fill="#D23535" transform="translate(390,216)"/>
<path d="M0 0 C0.66 0 1.32 0 2 0 C2.1875 2.875 2.1875 2.875 2 6 C1.01 6.66 0.02 7.32 -1 8 C-1.04241723 5.66705225 -1.04092937 3.33297433 -1 1 C-0.67 0.67 -0.34 0.34 0 0 Z " fill="#D22C34" transform="translate(427,201)"/>
<path d="M0 0 C1 2 1 2 0.0625 5.125 C-0.288125 6.07375 -0.63875 7.0225 -1 8 C-1.99 7.67 -2.98 7.34 -4 7 C-2.79618552 4.50638429 -1.54571278 2.31856917 0 0 Z " fill="#C52D2E" transform="translate(415,188)"/>
<path d="M0 0 C1.32 0.33 2.64 0.66 4 1 C4 1.99 4 2.98 4 4 C4.66 4 5.32 4 6 4 C5.67 4.99 5.34 5.98 5 7 C3.29115995 5.37660195 1.62553283 3.70680947 0 2 C0 1.34 0 0.68 0 0 Z " fill="#C93132" transform="translate(80,179)"/>
<path d="M0 0 C2.64752004 2.57784846 4.94432065 4.91648098 7 8 C5.35 7.67 3.7 7.34 2 7 C1.34 4.69 0.68 2.38 0 0 Z " fill="#AF282C" transform="translate(58,174)"/>
<path d="M0 0 C0.99 0 1.98 0 3 0 C2.60196439 2.88575819 2.20990931 3.82189513 -0.0625 5.75 C-0.701875 6.1625 -1.34125 6.575 -2 7 C-1.42415568 4.61435923 -0.77772405 2.33317216 0 0 Z " fill="#CB3236" transform="translate(405,178)"/>
<path d="M0 0 C1.98 0 3.96 0 6 0 C4.35 1.65 2.7 3.3 1 5 C0.67 3.35 0.34 1.7 0 0 Z " fill="#C72A2B" transform="translate(433,149)"/>
<path d="M0 0 C1.98 1.65 3.96 3.3 6 5 C4.1875 5.6875 4.1875 5.6875 2 6 C0.25 4.5625 0.25 4.5625 -1 3 C-0.67 2.01 -0.34 1.02 0 0 Z " fill="#A12525" transform="translate(74,106)"/>
<path d="M0 0 C2.02054804 1.64169528 4.02043058 3.30911778 6 5 C6 5.33 6 5.66 6 6 C4.35 6 2.7 6 1 6 C0.67 4.02 0.34 2.04 0 0 Z " fill="#B52A26" transform="translate(145,264)"/>
<path d="M0 0 C0.33 1.32 0.66 2.64 1 4 C0.34 4 -0.32 4 -1 4 C-1 4.66 -1 5.32 -1 6 C-2.32 6.33 -3.64 6.66 -5 7 C-1.125 1.125 -1.125 1.125 0 0 Z " fill="#A62A28" transform="translate(342,263)"/>
<path d="M0 0 C0.66 0 1.32 0 2 0 C1.75 1.875 1.75 1.875 1 4 C-1.0625 5.25 -1.0625 5.25 -3 6 C-2.42655063 3.13275314 -2.1385485 2.1385485 0 0 Z " fill="#D43335" transform="translate(297,224)"/>
<path d="M0 0 C-1.36983503 3.16115776 -1.9890638 3.9927092 -5 6 C-5 4.35 -5 2.7 -5 1 C-2 0 -2 0 0 0 Z " fill="#CE3237" transform="translate(369,218)"/>
<path d="M0 0 C0.33 1.32 0.66 2.64 1 4 C0.01 4.66 -0.98 5.32 -2 6 C-2.99 5.67 -3.98 5.34 -5 5 C-3.35 3.35 -1.7 1.7 0 0 Z " fill="#CA3134" transform="translate(333,188)"/>
<path d="M0 0 C0.99 0.66 1.98 1.32 3 2 C1.35 3.32 -0.3 4.64 -2 6 C-2.33 5.01 -2.66 4.02 -3 3 C-2.01 2.01 -1.02 1.02 0 0 Z " fill="#C72E2D" transform="translate(429,173)"/>
<path d="M0 0 C0.33 1.32 0.66 2.64 1 4 C0.34 4 -0.32 4 -1 4 C-1 4.66 -1 5.32 -1 6 C-2.32 5.67 -3.64 5.34 -5 5 C-3.35 3.35 -1.7 1.7 0 0 Z " fill="#9C2225" transform="translate(348,172)"/>
<path d="M0 0 C0.33 0.99 0.66 1.98 1 3 C-1.97 5.475 -1.97 5.475 -5 8 C-5.66 7.67 -6.32 7.34 -7 7 C-4.69 4.69 -2.38 2.38 0 0 Z " fill="#8A1E21" transform="translate(364,156)"/>
</svg>
